<?xml version="1.0" encoding="utf-8"?>
<!-- Generator: Adobe Illustrator 16.0.0, SVG Export Plug-In . SVG Version: 6.00 Build 0)  -->
<!DOCTYPE svg PUBLIC "-//W3C//DTD SVG 1.1//EN" "http://www.w3.org/Graphics/SVG/1.1/DTD/svg11.dtd">
<svg version="1.1" xmlns="http://www.w3.org/2000/svg" xmlns:xlink="http://www.w3.org/1999/xlink" x="0px" y="0px"
	 width="1530.708px" height="1474.016px" viewBox="0 0 1530.708 1474.016" enable-background="new 0 0 1530.708 1474.016"
	 xml:space="preserve">
<g id="claim">
	<g>
		<path fill-rule="evenodd" clip-rule="evenodd" fill="#FFFFFF" d="M561.787,599.188c-0.498-1.771-0.866-3.61-1.386-5.398
			c26.147-31.375,38.769-68.862,34.43-107.397c-10.077-89.518-103.301-149.445-233.411-134.797
			c-130.111,14.646-258.692,76.802-250.163,187.281c9.78,126.694,114.71,157.94,244.822,143.294
			c64.44-7.255,140.405-27.26,175.744-60.756c20.753,21.353,75.125,33.148,75.125,33.148S566.578,616.242,561.787,599.188z"/>
		<path d="M554.944,594.173l-0.038-0.06l1.641-3.536c1.402-3.023,3.144-5.714,4.885-8.397c0.903-1.318,1.783-2.647,2.715-3.94
			c0.887-1.324,1.799-2.632,2.649-3.978c3.46-5.348,6.579-10.901,9.303-16.633c5.448-11.457,9.358-23.615,11.34-36.081
			c0.983-6.23,1.548-12.528,1.583-18.832c0.048-3.152-0.071-6.305-0.267-9.45c-0.11-1.573-0.228-3.146-0.403-4.713l-0.119-1.177
			c-0.005-0.055-0.03-0.292-0.02-0.197l-0.04-0.309l-0.08-0.617l-0.32-2.468c-0.219-1.631-0.483-3.069-0.724-4.617
			c-0.31-1.548-0.569-3.106-0.917-4.646c-0.348-1.538-0.668-3.084-1.08-4.606l-0.587-2.291l-0.655-2.272
			c-1.751-6.057-3.984-11.967-6.635-17.682c-2.637-5.723-5.708-11.245-9.184-16.509c-3.466-5.269-7.293-10.31-11.492-15.039
			c-4.189-4.736-8.691-9.208-13.478-13.373c-4.796-4.154-9.857-8.018-15.132-11.583c-21.139-14.281-45.571-23.608-70.773-28.907
			c-12.624-2.639-25.472-4.331-38.398-5.165c-12.93-0.818-25.934-0.753-38.909,0.016c-6.486,0.403-12.971,1.003-19.429,1.745
			l-4.928,0.589l-4.839,0.627c-3.237,0.451-6.486,0.896-9.719,1.405c-12.947,1.973-25.809,4.463-38.55,7.425
			c-25.453,5.993-50.467,13.938-74.195,24.589c-11.857,5.32-23.396,11.303-34.363,18.123c-10.967,6.811-21.391,14.431-30.874,23.003
			c-9.481,8.564-17.993,18.112-25.013,28.589c-7.015,10.473-12.476,21.91-15.874,33.954c-3.405,12.04-4.751,24.637-4.183,37.222
			c0.099,1.551,0.157,3.195,0.285,4.671l0.437,4.958l0.538,4.723c0.174,1.57,0.437,3.173,0.649,4.758
			c0.941,6.347,2.18,12.632,3.77,18.808c3.171,12.35,7.777,24.27,14.032,35.219c6.239,10.951,14.117,20.919,23.437,29.392
			c9.296,8.495,19.913,15.582,31.341,21.19c11.414,5.65,23.58,9.92,36.074,13.088c12.501,3.169,25.335,5.249,38.279,6.53
			c12.947,1.286,26.015,1.755,39.097,1.623c13.084-0.117,26.188-0.853,39.266-2.036c6.529-0.58,13.089-1.304,19.601-2.127
			c6.485-0.813,13.014-1.729,19.49-2.783c25.924-4.197,51.639-10.043,76.41-18.426c12.378-4.188,24.492-9.082,36.044-14.923
			c11.508-5.868,22.499-12.778,31.706-21.349l3.594-3.346l3.604,3.493l0.001,0.001l1.63,1.641c0.561,0.537,1.163,1.051,1.742,1.581
			c1.203,1.026,2.432,2.045,3.748,2.992c1.28,0.979,2.652,1.878,4.012,2.787l2.087,1.32l2.136,1.267
			c5.74,3.337,11.849,6.229,18.093,8.853c6.252,2.615,12.656,4.956,19.142,7.077c3.243,1.062,6.507,2.069,9.787,3.021
			c1.639,0.479,3.284,0.935,4.929,1.384c1.637,0.441,3.314,0.881,4.91,1.268l-3.25,6.146l-0.001-0.002
			c-2.256-2.071-4.434-4.132-6.618-6.228c-2.178-2.093-4.338-4.203-6.479-6.337c-4.282-4.265-8.494-8.613-12.602-13.09
			c-4.104-4.484-8.115-9.081-11.904-13.984c-1.893-2.456-3.727-4.992-5.447-7.71c-0.858-1.362-1.687-2.773-2.457-4.285
			c-0.768-1.516-1.487-3.123-2.057-4.984L554.944,594.173z M566.083,595.517l0.593,2.298c0.263,1.019,0.705,2.187,1.245,3.364
			c0.541,1.183,1.18,2.39,1.871,3.592c1.388,2.407,2.969,4.804,4.642,7.165c3.351,4.727,7.041,9.33,10.85,13.848
			c3.816,4.516,7.77,8.948,11.807,13.312c2.018,2.182,4.059,4.346,6.118,6.492c2.055,2.141,4.147,4.287,6.224,6.356l0.001,0.001
			l9.609,8.77l-12.859-2.624c-1.78-0.363-3.463-0.74-5.181-1.137c-1.707-0.399-3.411-0.806-5.108-1.235
			c-3.396-0.853-6.778-1.762-10.146-2.73c-6.736-1.936-13.419-4.103-20.025-6.587c-6.601-2.496-13.132-5.291-19.484-8.676
			l-2.374-1.294l-2.35-1.369c-1.551-0.953-3.108-1.898-4.618-2.963c-1.528-1.021-3.012-2.153-4.48-3.319
			c-0.722-0.608-1.456-1.194-2.167-1.827l-2.099-1.966l-0.002-0.002l7.197,0.147c-10.175,9.628-21.859,17.043-33.904,23.33
			c-12.087,6.245-24.608,11.418-37.331,15.85c-25.46,8.861-51.651,15.043-78.077,19.561c-6.614,1.135-13.224,2.123-19.9,3.019
			c-6.65,0.884-13.281,1.653-19.968,2.301c-13.349,1.304-26.765,2.153-40.225,2.368c-13.458,0.23-26.962-0.154-40.441-1.396
			c-13.476-1.238-26.936-3.313-40.194-6.574c-13.25-3.261-26.309-7.721-38.737-13.764c-12.421-6.029-24.146-13.768-34.485-23.146
			c-10.364-9.35-19.191-20.43-26.132-32.513c-6.964-12.084-12.042-25.134-15.52-38.469c-1.744-6.671-3.099-13.42-4.13-20.197
			c-0.236-1.702-0.515-3.375-0.715-5.102l-0.604-5.167l-0.455-4.956c-0.165-1.83-0.228-3.503-0.344-5.263
			c-0.682-13.923,0.762-28.062,4.539-41.59c3.763-13.533,9.846-26.361,17.558-37.959c7.704-11.623,17.031-22.007,27.224-31.243
			c10.207-9.24,21.301-17.347,32.872-24.544c11.574-7.207,23.653-13.476,36.006-19.029c24.719-11.113,50.54-19.318,76.737-25.508
			c13.112-3.06,26.329-5.626,39.623-7.662c3.322-0.524,6.648-0.984,9.984-1.45l5.033-0.655l4.956-0.596
			c6.727-0.778,13.461-1.406,20.223-1.831c27.021-1.634,54.414-0.294,81.125,5.448c13.343,2.862,26.5,6.796,39.212,11.965
			c12.703,5.172,24.981,11.558,36.386,19.354c5.704,3.891,11.194,8.116,16.411,12.675c5.208,4.569,10.124,9.489,14.705,14.714
			c4.59,5.217,8.789,10.79,12.591,16.625c3.812,5.829,7.186,11.952,10.078,18.296c2.906,6.337,5.349,12.89,7.257,19.591l0.712,2.514
			l0.64,2.532c0.445,1.685,0.795,3.39,1.17,5.089c0.375,1.7,0.657,3.417,0.988,5.125c0.268,1.731,0.579,3.562,0.793,5.221l0.31,2.47
			l0.078,0.617l0.083,0.729l0.126,1.3c0.186,1.731,0.31,3.469,0.423,5.207c0.202,3.477,0.316,6.962,0.251,10.446
			c-0.07,6.969-0.721,13.928-1.837,20.799c-2.247,13.751-6.611,27.101-12.613,39.581c-3,6.245-6.42,12.271-10.194,18.052
			c-1.903,2.878-3.805,5.762-5.982,8.437C569.971,591.811,568.128,593.759,566.083,595.517z"/>
	</g>
	<path fill-rule="evenodd" clip-rule="evenodd" d="M208.664,555.089c-0.325,4.576-6.435,3.469-9.229,3.97
		c-1.312,0.249-3.681,5.204-6.232,3.651c-2.674-1.624-4.124,3.646-2.542,5.884c2.139,3.026,5.336,12.062,8.748,12.62
		c9.958,1.565,19.111,4.241,28.38,2.873c-0.49,1.556,13.095-3.313,14.922-3.036c-0.128,0.228-0.256,0.452-0.402,0.713
		c1.092,1.535,13.866-6.469,16.359-6.3c-0.267,0.514-0.253,0.914,0.041,1.203c1.002-1.745,7.693-4.85,10.028-3.938
		c-0.059-1.815,10.044-5.171,11.105-4.54c1.59-3.133,6.582-1.437,9.304-2.091c5.385-1.294,4.608-3.724,6.036-0.332
		c-1.199,0.547-2.342-0.198-2.652,1.678c0.49,0.044,0.974,0.135,1.452,0.271c-0.239,0.598-0.477,1.194-0.714,1.794
		c0.647,0.312,1.294,0.625,1.942,0.938c-0.63,1.077-1.403,1.468-2.317,1.172c0.975,3.841,0.455,3.331,0.455,7.537
		c-2.6-2.585-1.982,3.312-1.903,2.908c-3.174,1.063-2.508,0.136-3.901,3.425c-0.705,0.778-1.501,0.937-2.388,0.473
		c-0.053,1.127-0.291,2.178-0.712,3.153c-2.048,1.767-4.308-0.259-6.655,2.272c-0.611,0.661-7.833,3.61-8.541,3.37
		c-0.9,2.026-5.224,4.03-7.061,2.908c0.01,3.438-2.3,1.098-3.512,1.236c0.568,2.489-1.887,2.388-3.348,2.538
		c-2.158,0.232-2.003-3.919-3.399,2.286c-1.792-1.18-4.198-0.579-5.142,1.804c-0.197-1.63-3.591,0.83-5.132-1.684
		c-1.062,3.506-7.014,2.701-6.423,5.66c-3.636,1.085-10.752,4.053-10.752-1.425c-1.328,0.454-6.678,0.773-7.529,2.209
		c-1.311,2.211-9.742-0.382-11.819,0.017c-1.184-2.982-7.464-0.418-9.596-2.106c-2.445-1.936-4.689-2.091-6.984-4.843
		c-1.023-1.221-1.261-2.631-2.549-3.463c-2.562-1.653-1.239-2.383-3.347-4.297c-2.536-2.302-2.207-7.91-5.125-9.681
		c-1.363-2.104-4.35-12.302-4.176-15.013c0.201-3.132-1.903-6.946-2.228-10.6c0.426,0.215,0.852,0.432,1.277,0.646
		c0.249-0.768-1.96-5.361-2.048-6.924c-0.221-3.905,0.267-6.585,0.502-9.683c0.64-8.415,0.333-18.259,3.772-26.219
		c1.105-2.557,2.587-8.253,3.539-9.655c2.375-3.493,5.258-6.863,7.497-10.634c2.708-4.562,13.221-12.075,17.143-12.234
		c3.604-0.184,7.708-3.568,11.561-3.797c1.421-0.089,5.179,0.659,6.231-1.27c0.534-0.996,17.333,0.174,18.135,0.879
		c1.002,0.883,9.185,3.05,10.33,2.475c2.021-1.027,3.555,7.74,3.917,8.798c0.906,2.632,2.457,0.635,2.77,3.268
		c0.372,3.124-0.718,5.621-0.236,8.69c-1.64-0.446-2.132,0.757-1.565,2.813c-1.976-1.769-6.345-4.399-8.875-1.932
		c-3.048,2.975-5.644,1.92-9.341-1.16c0.067,0.694,0.133,1.387,0.2,2.08c-4.419,0-7.81-0.93-11.779-0.44
		c-1.358,0.169-9.133,1.655-9.704,1.061c-0.614-0.64-5.538,1.316-7.17,0.534c0.125,0.426,0.25,0.851,0.375,1.276
		c-0.405,0.142-2.655,1.706-2.843,0.157c-1.385,1.263-13.647,8.523-13.793,9.982c-0.329,3.272-2.375,7.497-4.123,10.024
		c-1.258,1.82-1.946,1.416-2.883,3.7c-1.789,4.359-2.087,3.545-2.087,6.357c2.195-1.772,10.798-1.924,10.84-3.523
		c2.716,1.079,2.587-0.61,5.543-1.11c1.021,2.84,4.257-3.282,6.374,0.649c1.743-3.005,9.429-3.056,11.67-2.175
		c1.146,0.45,3.525,0.546,4.196-0.641c0.517,0.487,2.515,2.691,2.84,2.857c-0.899-5.369,25.038-1.271,28.077-2.975
		c0.35,0.564-0.765,1.284,0.18,1.875c0.894,0.562,1.755-1.29,2.751-1.091c-0.043-0.009,2.901,1.066,3.499,2.185
		c0.258-0.905,3.923-2.124,5.634-1.31c0.069,0.403-3.262,6.613-3.056,6.595c-1.724,0.158-3.79,3.566-3.559,3.641
		c-0.13-0.042-3.257,2.574-3.372,2.917c0.125,0.284-4.782-0.985-5.555,0.013c1.131,0.931,2.374,1.389,3.73,1.372
		c0.011-0.11-11.058,2.72-11.377,3.564c-1.6-3.625-7.53-1.865-9.389,0.253c-0.619-0.721-0.295-1.556,0.972-2.502
		c-3.494-0.177-4.074,5.095-7.816,4.738c-3.206-0.306-8.832-0.351-11.588,0.189c-0.365,0.781-0.63,1.612-0.796,2.494
		c-0.208-0.425-0.416-0.848-0.624-1.272c-0.428,0.383-0.856,0.766-1.284,1.147C210.792,555.914,210.41,555.281,208.664,555.089
		C208.602,555.962,209.222,555.417,208.664,555.089z"/>
	<path fill-rule="evenodd" clip-rule="evenodd" d="M501.351,547.79c0.007-3.19,4.939,7.185,1.923,4.526
		c-1.444,2.908,3.365,3.773,1.932,7.103c-0.921,2.146,2.342,1.029,2.111,3.364c-0.184,1.847-2.498,1.812-2.807,3.703
		c-0.618,3.814-4.021,0.891-4.723,3.424c-1.749,6.33-13.524-6.619-16.055-6.879c-1.295-0.133-11.195-6.497-10.796-7.476
		c-4.322-0.206-6.76-9.895-12.788-10.763c-2.296-0.33-4.144-4.689-6.553-4.381c0.056-0.008-4.515-3.324-4.372-3.258
		c-1.831-0.879-2.802,0.286-4.679-0.171c-4.98-1.199-13.011-9.375-18.058-4.367c-2.164,2.149-0.559,5.394,0.261,7.752
		c-1.956,2.651-1.155,7.518-2.255,10.803c-0.907,2.706-6.691,22.969-12.136,20.346c-3.549-1.703-3.629-18.915-3.13-22.38
		c0.518-3.582-1.309-6.394-1.184-9.775c0.071-1.95-1.087-6.69-1.624-8.461c-0.765-2.521,0.146-4.265-1.505-6.665
		c-2.155-3.103-2.981-13.133-3.304-17.077c-0.186-2.279-2.166-4.799-2.781-7.044c-0.559-2.055-0.876-4.25-1.47-6.288
		c-1.145-3.958-1.322-7.899-2.382-11.854c-1.526-5.697-3.473-12.518-1.735-18.38c1.534-5.18,2.192-5.356,6.488-8.428
		c1.151-0.823,0.055-3.006,1.58-3.771c0.653-0.327,3.086-0.732,3.702-0.923c1.798-0.553,1.354,2.755,1.52,4.03
		c0.865,6.685,4.408,6.879,8.296,0.58c0.136-0.018,5.318-4.001,5.989-4.569c1.239-1.045,2.554-1.697,3.871-2.643
		c1.485-1.061,4.417,0.145,5.198-1.231c2.035-3.577,14.77-1.695,17.769-0.522c4.075,1.59,24.333,13.913,19.545,19.476
		c6.802,4.962,5.433,18.241,3.552,26.167c-0.264,1.108-0.264,3.255-1.788,3.563c0.271,2.717,0.071,7.037-2.086,9.118
		c-1.707,1.652-1.387,5.886-3.553,6.877c-13.198,6.033-7.009,8.606-2.85,9.883c6.993,2.143,13.48,7.6,19.799,11.016
		c4.53,2.448,4.979,7.029,9.813,8.974C494.726,543.06,497.567,544.607,501.351,547.79
		C501.352,547.56,500.276,546.884,501.351,547.79z M452.139,474.386c-2.578-2.625-11.888-11.231-15.39-7.489
		c-3.821-4.119-19.433-1.567-21.31,4.104c-0.606,1.83-3.58,5.971-2.685,8.051c0.921,2.156,1.909,1.44,1.422,4.352
		c-0.249,1.489,0.927,4.27,1.426,5.63c1.265,3.32,7.655,29.506,8.288,29.355c2.073-2.903,6.833-1.824,6.564-4.711
		c0.021,0.237,7.288-5.638,7.636-5.952c1.158-1.034,2.738,2.025,3.591,0.932c0.907-1.159,3.318-1.096,4.693-1.631
		c2.753-1.076,10.329-8.154,10.331-8.15c0.682-3.616,2.316-10.314,0.907-13.096C456.864,484.281,451.914,474.521,452.139,474.386
		C451.812,474.053,452.213,474.344,452.139,474.386z"/>
	<path fill-rule="evenodd" clip-rule="evenodd" d="M382.528,576.444c1.668,3.921-0.188,8.006-4.499,8.031
		c-4.191,0.051-10.349-9.49-13.672-11.934c-0.717-0.529-1.418-2.995-2.341-3.796c-1.64-1.425-2.917-3.18-4.54-4.617
		c-1.983-1.746-3.024-2.212-4.692-5.019c-0.948-1.6-4.912-1.9-6.336-4.639c-1.059-2.034-4.819-2.862-6.843-4.984
		c-3.088-3.23-16.452-14.016-13.337-1.978c1.832,7.091-1.042,30.216-4.204,36.422c-0.936,1.842-5.788,8.121-8.27,4.967
		c-2.246-2.853,0.266-6.098-0.61-8.914c-1.977-6.351-2.846-27.908-3.943-35.709c-0.887-6.366-3.874-12.409-2.488-19.003
		c0.708-3.35-1.941-3.5-1.896-6.289c0.021-1.323,1.468-2.644-0.266-3.765c-0.655-0.423-1.707-4.236-1.28-4.788
		c2.143-2.76-1.867-8.711-1.661-12.059c0.227-3.687,0.103-7.993,0.696-11.553c1.059-6.354-3.628-15.532,1.889-20.976
		c2.957-2.918,2.308-3.007,5.443-2.502c4.63,0.745,0.374,0.369,3.116,2.19c2.687,1.78,14.732-8.28,17.459-9.957
		c8.054-4.956,13.575,1.904,19.731,6.286c2.973,2.116,4.317,8.928,7.971,10.079c2.616,0.819,5.327,9.476,6.247,11.972
		c3.654,9.912,2.933,18.201-0.5,27.542c-1.959,5.332-4.946,10.624-9.256,14.31c-4.364,3.734,0.553,9.448,2.451,10.73
		c5.499,3.727,9.763,9.743,15.149,13.839C376.823,553.967,392.345,570.659,382.528,576.444
		C382.54,576.474,383.015,576.157,382.528,576.444z M328.588,473.725c-6.232-1.605-8.619,4.181-11.563,8.18
		c-2.681,3.644-2.212,5.486-0.491,8.974c0.462,0.936,2.337,7.461,1.488,8.497c0.14-0.169,2.543,8.9,2.781,9.562
		c0.915,2.551,1.806,6.622,2.055,9.258c0.226,2.433,5.837-2.853,6.341-3.217c2.509-1.815,4.264,0.677,7.586,0.875
		c5.347,0.313,16.566-1.118,17.432-8.298c0.872-7.216-3.344-11.229-5.796-17.031c-1.196-2.838-4.364-10.063-6.43-10.63
		C337.647,478.71,334.357,471.382,328.588,473.725C328.362,473.666,329.267,473.449,328.588,473.725z M324.933,459.422
		c-0.575,0.44-0.884,0.064-1.368,0.435C324.655,460.147,324.789,460.67,324.933,459.422z"/>
	<g>
		<path d="M529.242,550.782c2.438,1.691,5.474,3.237,8.306,4.474c3.155-1.473,6.555-3.107,8.595-5.726
			c2.786-3.574,1.44-8.604,0.23-12.76c-1.462-0.327-3.079-1.004-4.619-1.79c-4.407-0.124-10.003-0.409-13.402,2.64
			c-0.198,0.176-0.384,0.382-0.569,0.587C527.138,542.155,528.075,546.872,529.242,550.782z"/>
		<path d="M512.15,444.64c-0.179,4.926-0.341,10.567,0.765,15.422c1.152,5.054-0.099,10.304,0.573,15.405
			c0.937,7.116,0.627,15.562,2.73,22.48c0.555,1.825,1.614,4.073,0.814,5.345c1.44,6.959,3.62,14.103,6.913,20.088
			c0.335,0.055,0.444,0.4,0.477,0.859c0.597,1.027,1.226,2.021,1.894,2.966c0.003,0.005,0.004,0.01,0.008,0.014
			c2.213,0.724,6.563,2.188,6.453,2.307c0.38-0.414,0.954-0.71,1.637-0.927c0.171-0.739,0.563-1.423,1.269-1.909
			c3.223-2.222,5.828-4.802,7.879-8.308c-1.731-4.011-1.445-10.568-2.648-13.896c-0.642-1.788-1.888-1.892-2.23-3.892
			c0.027,0.156-0.098-5.486-0.065-5.446c-1.407-1.771,0.509-5.817-0.425-7.869c-2.451-5.392,1.131-15.24-0.898-18.861
			c0.838-0.249,0.606-14.425,0.043-15.552c-1.098-2.201,1.447-19.312-3.553-17.028c-2.002,0.912-1.801-3.554-4.595-1.825
			c-1.387,0.855-2.523-1.039-3.818-0.108c-1.637,1.178-3.316,1.63-5.176,2.137c-2.886,0.785-3.44,3.865-6.058,4.395
			C514.36,436.438,510.068,446.498,512.15,444.64z"/>
	</g>
</g>
<g id="farbe">
	<path fill="#656454" d="M1178.433,780.845c-5.749,0.419-0.362,10.576-1.539,16.285c53.382-1.739,252.031-17.396,234.739-113.385
		c-4.424-24.559-10.855-130.293-53.182-129.847c-17.315,0.176-58.459,22.69-71.241,3.558c-13.123-19.643-2.776-45.125,15.485-59.72
		c6.386-5.104-10.16,8.12,0,0c34.883-27.884,137.343-12.814,129.978-88.77c-6.94-71.571-49.645-159.27-99.323-220.127
		c-103.127-126.365-290.531-122.378-430.38-76.503c-30.595,10.036-88.22,52.902-94.265,72.104
		c-14.743,46.833,32.563,90.534,39.466,130.356c6.938,40.024-2.52,62.924-25.209,65.573s-42.428-43.955-78.978-42.752
		c-51.475,1.689-123.963,133.819-118.877,163.549s19.36,50.731,36.682,70.73s48.754,50.244,80.43,66.246
		c0,0,66.187-121.282,270.934-56.3c90.035,28.575,156.912,114.339,166.944,160.374
		C1186.351,770.919,1178.433,780.845,1178.433,780.845z M861.94,321.13C862.345,321.721,861.852,321.429,861.94,321.13
		C861.94,321.13,861.912,321.225,861.94,321.13z"/>
	<path fill="#656454" d="M1182.407,791.243c-0.138-0.948-0.304-1.879-0.464-2.773c-0.128-0.718-0.289-1.62-0.403-2.428l1.325-1.662
		c0.982-1.231,9.408-12.913,2.771-43.369c-5.52-25.326-26.556-59.595-54.899-89.432c-33.646-35.419-74.796-62.104-115.869-75.139
		c-40.582-12.88-78.81-19.411-113.624-19.411c-62.445,0-103.594,21.135-127.118,38.864c-18.41,13.875-29.14,27.735-33.911,34.784
		c-28.033-15.396-56.391-41.998-74.141-62.492c-15.372-17.748-30.297-38.267-35.379-67.975c-1.003-5.867,2.327-22.089,15.017-48.493
		c11.534-23.999,27.136-48.78,42.805-67.988c20.874-25.589,40.639-39.952,55.653-40.445c0.404-0.013,0.805-0.02,1.204-0.02
		c17.162,0,30.316,12.053,43.037,23.71c10.761,9.86,20.925,19.174,32.676,19.174c0.845,0,1.697-0.05,2.533-0.147
		c9.827-1.147,17.64-5.519,23.222-12.993c9.249-12.384,11.576-32.295,6.916-59.179c-2.748-15.856-11.145-31.557-20.034-48.178
		c-13.815-25.83-28.1-52.539-19.61-79.509c5.205-16.532,61.104-58.735,90.624-68.419c57.897-18.992,118.396-29.031,174.956-29.031
		c75.094,0,179.296,17.997,249.265,103.732c52.279,64.043,91.691,151.284,98.073,217.089c1.994,20.57-4.371,34.939-20.033,45.219
		c-14.479,9.503-34.813,14.275-54.478,18.892c-19.679,4.618-38.329,8.996-51.029,17.934c-0.482,0.27-0.851,0.563-1.121,0.78
		l-4.597,3.674l0.173,0.014c-23.021,20.629-24.351,48.264-13.449,64.58c4.531,6.783,12.036,10.223,22.305,10.223
		c10.488,0,22.636-3.535,33.354-6.654c8.057-2.345,15.666-4.559,20.354-4.606l0.209-0.001c30.934,0,40.873,76.742,45.117,109.512
		c0.864,6.673,1.547,11.943,2.219,15.672c2.946,16.358-0.693,30.583-11.128,43.486c-17.497,21.637-54.903,39.015-108.174,50.252
		C1243.329,787.649,1200.776,790.431,1182.407,791.243z"/>
	<path fill-rule="evenodd" clip-rule="evenodd" d="M1108.984,475.929c-5.327,12.364-22.606,21.89-37.146,20.552
		c-10.608-0.976-14.831-3.299-15.18-14.494c-0.029-0.93-1.12-1.826-1.662-2.653c-9.98,5.098-18.888,14.492-30.703,6.354
		c-2.099-5.248-3.96-9.898-5.876-14.69c-1.892-0.134-3.775-0.268-5.807-0.411c-1.041,0.898-2.111,1.821-3.141,2.709
		c-3.294-0.34-6.459-0.667-9.453-0.977c-5.895-5.619-11.697-11.151-18.39-17.531c0.847-6.356,1.598-13.684,2.849-20.923
		c1.311-7.584,3.349-22.321-2.376-28.598c-6.659-7.299-14.286-8.483-20.106-16.577c-2.487-3.458-6.411-5.4-8.141-9.133
		c-4.569-9.86-7.332-20.647-12.58-30.083c-8.375-15.062-5.127-29.773-1.67-44.993c3.996-17.59,11.423-33.792,21.412-48.423
		c3.917-5.737,12.109-9.195,19.023-12.1c10.716-4.501,21.814-8.459,33.115-11.072c8.021-1.855,16.678-1.782,24.991-1.373
		c11.976,0.59,23.947,1.912,35.823,3.604c7.708,1.098,15.355,3.028,22.83,5.256c16.837,5.018,34.109,9.16,50.144,16.108
		c13.888,6.02,26.366,15.328,39.373,23.336c17.772,10.943,32.052,25.746,44.937,41.901c3.214,4.028,5.562,9.012,7.278,13.916
		c3.804,10.87,6.972,21.962,10.349,32.979c0.417,1.36,0.075,3.155,0.846,4.171c4.855,6.401,2.662,12.713-0.128,18.901
		c-5.204,11.541-9.694,23.549-16.209,34.317c-8.446,13.962-20.674,24.308-35.821,31.194c-9.64,4.383-19.355,8.392-29.982,7.963
		c-10.247-0.413-20.441-2.133-30.631-2.382c-3.328,1.01-6.655,2.02-9.716,2.948c-6.142-3.963-8.663-3.484-12.095,2.549
		c-1.62,2.848-4.197,5.151-6.336,7.703C1108.867,475.963,1108.925,475.946,1108.984,475.929z"/>
	<path fill-rule="evenodd" clip-rule="evenodd" fill="#FFFFFF" d="M1074.617,490.937c-0.767,0-1.526-0.034-2.26-0.102
		c-8.865-0.815-9.804-1.659-10.032-9.025c-0.083-2.605-1.571-4.379-2.371-5.332c-0.091-0.107-0.183-0.211-0.26-0.315l-2.789-4.256
		l-4.488,2.378c-2.231,1.14-4.346,2.435-6.392,3.686c-4.401,2.694-8.56,5.239-12.361,5.239c-1.571,0-3.151-0.442-4.795-1.347
		l-6.508-16.271l-11.685-0.827l-3.058,2.639l-5.093-0.526l-14.909-14.213c0.126-1.005,0.252-2.028,0.38-3.066
		c0.594-4.824,1.208-9.812,2.065-14.769c1.823-10.556,3.417-25.5-3.774-33.384c-3.539-3.88-7.278-6.258-10.577-8.356
		c-3.531-2.247-6.581-4.187-9.115-7.71c-1.413-1.965-3.046-3.444-4.485-4.75c-1.399-1.268-2.607-2.362-3.114-3.457
		c-1.819-3.928-3.332-7.992-4.934-12.296c-2.249-6.046-4.575-12.298-7.836-18.159c-7.388-13.286-4.332-26.739-1.096-40.981
		c3.696-16.27,10.615-31.908,20.565-46.482c2.99-4.378,10.502-7.533,16.537-10.069c11.87-4.985,22.402-8.51,32.197-10.775
		c4.264-0.986,9.236-1.466,15.202-1.466c2.409,0,5.025,0.074,8.233,0.231c10.65,0.525,22.198,1.688,35.302,3.555
		c6.503,0.927,13.497,2.539,22.011,5.077c4.082,1.216,8.24,2.396,12.262,3.537c12.492,3.545,25.41,7.211,37.247,12.34
		c9.545,4.137,18.338,9.863,27.647,15.926c3.584,2.334,7.29,4.747,11.007,7.036c14.866,9.153,28.681,22.057,43.477,40.608
		c2.448,3.067,4.587,7.19,6.36,12.254c2.819,8.06,5.345,16.44,7.787,24.545c0.816,2.709,1.632,5.418,2.461,8.122
		c0.019,0.139,0.038,0.417,0.054,0.627c0.094,1.295,0.25,3.464,1.727,5.41c2.745,3.618,1.936,7.122-0.779,13.145
		c-1.392,3.085-2.745,6.232-4.055,9.276c-3.724,8.66-7.241,16.84-11.837,24.437c-7.652,12.649-18.862,22.396-33.317,28.968
		c-8.677,3.945-17.199,7.486-26.066,7.486c-0.445,0-0.892-0.009-1.341-0.027c-4.662-0.188-9.474-0.672-14.127-1.141
		c-5.405-0.544-10.994-1.107-16.594-1.244l-0.912-0.021l-8.184,2.482c-2.117-1.156-4.471-2.074-6.96-2.074
		c-6.285,0-9.464,5.589-10.821,7.976c-0.793,1.393-2.098,2.812-3.479,4.313c-0.747,0.811-1.519,1.649-2.273,2.551l-10.067,12.012
		C1088.656,488.334,1081.376,490.937,1074.617,490.937z"/>
	<path fill="#656454" d="M1178.433,780.845c-5.749,0.419-0.362,10.576-1.539,16.285c53.382-1.739,252.031-17.396,234.739-113.385
		c-4.424-24.559-10.855-130.293-53.182-129.847c-17.315,0.176-58.459,22.69-71.241,3.558c-13.123-19.643-2.776-45.125,15.485-59.72
		c6.386-5.104-10.16,8.12,0,0c34.883-27.884,137.343-12.814,129.978-88.77c-6.94-71.571-49.645-159.27-99.323-220.127
		c-103.127-126.365-290.531-122.378-430.38-76.503c-30.595,10.036-88.22,52.902-94.265,72.104
		c-14.743,46.833,32.563,90.534,39.466,130.356c6.938,40.024-2.52,62.924-25.209,65.573s-42.428-43.955-78.978-42.752
		c-51.475,1.689-123.963,133.819-118.877,163.549s19.36,50.731,36.682,70.73s48.754,50.244,80.43,66.246
		c0,0,66.187-121.282,270.934-56.3c90.035,28.575,156.912,114.339,166.944,160.374
		C1186.351,770.919,1178.433,780.845,1178.433,780.845z M861.94,321.13C862.345,321.721,861.852,321.429,861.94,321.13
		C861.94,321.13,861.912,321.225,861.94,321.13z"/>
	<path fill="#656454" d="M1182.407,791.243c-0.138-0.948-0.304-1.879-0.464-2.773c-0.128-0.718-0.289-1.62-0.403-2.428l-6.474-1.662
		c0.982-1.231,17.207-12.913,10.57-43.369c-5.52-25.326-26.556-59.595-54.899-89.432c-33.646-35.419-74.796-62.104-115.869-75.139
		c-40.582-12.88-78.81-19.411-113.624-19.411c-62.445,0-103.594,21.135-127.118,38.864c-18.41,13.875-29.14,27.735-33.911,34.784
		c-28.033-15.396-56.391-41.998-74.141-62.492c-15.372-17.748-30.297-38.267-35.379-67.975c-1.003-5.867,2.327-22.089,15.017-48.493
		c11.534-23.999,27.136-48.78,42.805-67.988c20.874-25.589,40.639-39.952,55.653-40.445c0.404-0.013,0.805-0.02,1.204-0.02
		c17.162,0,30.316,12.053,43.037,23.71c10.761,9.86,20.925,19.174,32.676,19.174c0.845,0,1.697-0.05,2.533-0.147
		c9.827-1.147,17.64-5.519,23.222-12.993c9.249-12.384,11.576-32.295,6.916-59.179c-2.748-15.856-11.145-31.557-20.034-48.178
		c-13.815-25.83-28.1-52.539-19.61-79.509c5.205-16.532,61.104-58.735,90.624-68.419c57.897-18.992,118.396-29.031,174.956-29.031
		c75.094,0,179.296,17.997,249.265,103.732c52.279,64.043,91.691,151.284,98.073,217.089c1.994,20.57-4.371,34.939-20.033,45.219
		c-14.479,9.503-34.813,14.275-54.478,18.892c-19.679,4.618-38.329,8.996-51.029,17.934c-0.482,0.27-0.851,0.563-1.121,0.78
		l-4.597,3.674l0.173,0.014c-23.021,20.629-24.351,48.264-13.449,64.58c4.531,6.783,12.036,10.223,22.305,10.223
		c10.488,0,22.636-3.535,33.354-6.654c8.057-2.345,15.666-4.559,20.354-4.606l0.209-0.001c30.934,0,40.873,76.742,45.117,109.512
		c0.864,6.673,1.547,11.943,2.219,15.672c2.946,16.358-0.693,30.583-11.128,43.486c-17.497,21.637-54.903,39.015-108.174,50.252
		C1243.329,787.649,1200.776,790.431,1182.407,791.243z"/>
	<path fill-rule="evenodd" clip-rule="evenodd" d="M1108.984,475.929c-5.327,12.364-22.606,21.89-37.146,20.552
		c-10.608-0.976-14.831-3.299-15.18-14.494c-0.029-0.93-1.12-1.826-1.662-2.653c-9.98,5.098-18.888,14.492-30.703,6.354
		c-2.099-5.248-3.96-9.898-5.876-14.69c-1.892-0.134-3.775-0.268-5.807-0.411c-1.041,0.898-2.111,1.821-3.141,2.709
		c-3.294-0.34-6.459-0.667-9.453-0.977c-5.895-5.619-11.697-11.151-18.39-17.531c0.847-6.356,1.598-13.684,2.849-20.923
		c1.311-7.584,3.349-22.321-2.376-28.598c-6.659-7.299-14.286-8.483-20.106-16.577c-2.487-3.458-6.411-5.4-8.141-9.133
		c-4.569-9.86-7.332-20.647-12.58-30.083c-8.375-15.062-5.127-29.773-1.67-44.993c3.996-17.59,11.423-33.792,21.412-48.423
		c3.917-5.737,12.109-9.195,19.023-12.1c10.716-4.501,21.814-8.459,33.115-11.072c8.021-1.855,16.678-1.782,24.991-1.373
		c11.976,0.59,23.947,1.912,35.823,3.604c7.708,1.098,15.355,3.028,22.83,5.256c16.837,5.018,34.109,9.16,50.144,16.108
		c13.888,6.02,26.366,15.328,39.373,23.336c17.772,10.943,32.052,25.746,44.937,41.901c3.214,4.028,5.562,9.012,7.278,13.916
		c3.804,10.87,6.972,21.962,10.349,32.979c0.417,1.36,0.075,3.155,0.846,4.171c4.855,6.401,2.662,12.713-0.128,18.901
		c-5.204,11.541-9.694,23.549-16.209,34.317c-8.446,13.962-20.674,24.308-35.821,31.194c-9.64,4.383-19.355,8.392-29.982,7.963
		c-10.247-0.413-20.441-2.133-30.631-2.382c-3.328,1.01-6.655,2.02-9.716,2.948c-6.142-3.963-8.663-3.484-12.095,2.549
		c-1.62,2.848-4.197,5.151-6.336,7.703C1108.867,475.963,1108.925,475.946,1108.984,475.929z"/>
	<path fill-rule="evenodd" clip-rule="evenodd" fill="#FFFFFF" d="M1074.617,490.937c-0.767,0-1.526-0.034-2.26-0.102
		c-8.865-0.815-9.804-1.659-10.032-9.025c-0.083-2.605-1.571-4.379-2.371-5.332c-0.091-0.107-0.183-0.211-0.26-0.315l-2.789-4.256
		l-4.488,2.378c-2.231,1.14-4.346,2.435-6.392,3.686c-4.401,2.694-8.56,5.239-12.361,5.239c-1.571,0-3.151-0.442-4.795-1.347
		l-6.508-16.271l-11.685-0.827l-3.058,2.639l-5.093-0.526l-14.909-14.213c0.126-1.005,0.252-2.028,0.38-3.066
		c0.594-4.824,1.208-9.812,2.065-14.769c1.823-10.556,3.417-25.5-3.774-33.384c-3.539-3.88-7.278-6.258-10.577-8.356
		c-3.531-2.247-6.581-4.187-9.115-7.71c-1.413-1.965-3.046-3.444-4.485-4.75c-1.399-1.268-2.607-2.362-3.114-3.457
		c-1.819-3.928-3.332-7.992-4.934-12.296c-2.249-6.046-4.575-12.298-7.836-18.159c-7.388-13.286-4.332-26.739-1.096-40.981
		c3.696-16.27,10.615-31.908,20.565-46.482c2.99-4.378,10.502-7.533,16.537-10.069c11.87-4.985,22.402-8.51,32.197-10.775
		c4.264-0.986,9.236-1.466,15.202-1.466c2.409,0,5.025,0.074,8.233,0.231c10.65,0.525,22.198,1.688,35.302,3.555
		c6.503,0.927,13.497,2.539,22.011,5.077c4.082,1.216,8.24,2.396,12.262,3.537c12.492,3.545,25.41,7.211,37.247,12.34
		c9.545,4.137,18.338,9.863,27.647,15.926c3.584,2.334,7.29,4.747,11.007,7.036c14.866,9.153,28.681,22.057,43.477,40.608
		c2.448,3.067,4.587,7.19,6.36,12.254c2.819,8.06,5.345,16.44,7.787,24.545c0.816,2.709,1.632,5.418,2.461,8.122
		c0.019,0.139,0.038,0.417,0.054,0.627c0.094,1.295,0.25,3.464,1.727,5.41c2.745,3.618,1.936,7.122-0.779,13.145
		c-1.392,3.085-2.745,6.232-4.055,9.276c-3.724,8.66-7.241,16.84-11.837,24.437c-7.652,12.649-18.862,22.396-33.317,28.968
		c-8.677,3.945-17.199,7.486-26.066,7.486c-0.445,0-0.892-0.009-1.341-0.027c-4.662-0.188-9.474-0.672-14.127-1.141
		c-5.405-0.544-10.994-1.107-16.594-1.244l-0.912-0.021l-8.184,2.482c-2.117-1.156-4.471-2.074-6.96-2.074
		c-6.285,0-9.464,5.589-10.821,7.976c-0.793,1.393-2.098,2.812-3.479,4.313c-0.747,0.811-1.519,1.649-2.273,2.551l-10.067,12.012
		C1088.656,488.334,1081.376,490.937,1074.617,490.937z"/>
	<polygon fill-rule="evenodd" clip-rule="evenodd" points="976.073,557.322 975.926,557.533 976.165,557.562 	"/>
	<g>
		<path fill-rule="evenodd" clip-rule="evenodd" fill="#9CCFF3" d="M689.227,884.856c-1.637,23.411-3.324,48.347-4.381,73.227
			c-0.172,87.426,8.2,155.496,24.884,202.31c13.87,38.918,30.746,56.119,43.898,66.757c2.195,1.775,4.538,3.577,7.16,5.509
			c0,0,10.769,7.772,23.909,13.823s32.723,15.344,32.723,15.344c24.863,8.401,52.55,13.493,92.578,17.023
			c5.516,0.487,11.356,0.733,17.361,0.733c18.648,0,37.604-2.344,57-4.955c5.653-0.761,11.194-1.67,17.062-2.633
			c2.684-0.44,5.389-0.885,8.13-1.317c0,0,23.498-6.528,31.878-8.624s27.262-8.748,27.262-8.748
			c25.859-13.562,44.472-32.018,55.319-54.854l1.175-2.474l1.558-3.815c0.777,0.337,8.222-40.085,8.222-40.085l0.028-1.111
			c0.386-14.854-1.772-27.213-3.65-34.965c-9.89-40.823-13.733-79.728-12.096-122.435l0.15-3.909l3.668,1.359
			c25.105,9.307,43.928,11.765,50.372,11.765c0.447,0,0.851-0.01,1.21-0.032c15.784-0.945,25.045-14.528,25.745-26.828
			c1.156-20.316-18.014-23.695-38.309-27.272c-11.333-1.998-23.053-4.063-31.092-9.362l-1.631-1.075l0.423-1.906
			c11.06-49.844,24.443-83.294,34.216-107.719c3.203-8.006,5.969-14.919,8.336-21.515c8.641-24.082,12.084-39.271,13.935-47.43
			c0.209-0.923,0.395-1.741,0.562-2.459c2.493-10.662-0.33-16.886-4.604-26.306c-0.553-1.219-1.124-2.476-1.701-3.786
			c-6.735-15.278-27.182-61.65-77.038-103.388l-2.569-0.414l0.165-1.578c-20.507-16.813-43.172-31.062-67.397-42.362
			c-13.511-6.303-29.027-11.562-47.436-16.079c-18.646-4.575-37.513-7.422-54.561-8.234c-6.801-0.323-13.607-0.487-20.229-0.487
			c-39.278,0-72.558,5.489-98.915,16.317c-2.512,1.032-5.114,1.979-7.629,2.896c-6.383,2.326-12.982,4.73-18.379,8.636
			c-7.249,5.244-33.759,29.261-39.073,39.927c-1.197,2.403-1.943,3.902-2.495,4.844c-4.353,9.189-12.17,27.316-13.291,30.228
			l-0.132,0.397c-0.341,1.024-0.728,2.168-1.156,3.435c-5.238,15.496-16.137,47.74-25.428,102.076
			c-1.2,7.019-2.283,13.315-3.265,19.02c-2.992,17.392-4.969,28.881-6.473,38.795L689.227,884.856z"/>
	</g>
	<path fill="#DEC4A1" d="M911.065,968.783c-13.881,0-30.588-8.433-40.628-20.507c-7.341-8.828-16.604-13.304-27.533-13.304
		c-2.345,0-4.806,0.205-7.315,0.611c-3.078,0.496-5.569,0.93-7.626,1.288c-4.406,0.768-6.788,1.183-8.808,1.183
		c-1.697,0-3.112-0.299-4.882-1.029c-2.525-1.041-4.11-3.638-4.135-6.774c-0.022-2.819,1.345-6.712,5.275-8.41
		c5.079-2.192,13.37-3.444,17.824-4.116l0.254-0.039c0.784-0.119,1.406-0.213,1.836-0.29l1.354-0.243l1.029,0.912
		c1.814,1.608,5.636,2.731,9.293,2.731c1.199,0,2.38-0.111,3.511-0.331c4.069-0.791,7.51-1.579,9.442-2.163l0.516-0.156l0.537,0.044
		c4.736,0.391,21.158,3.524,33.61,27.457c2.674,5.139,11.562,7.827,18.958,7.827c4.513,0,8.378-0.955,10.884-2.689
		c18.637-12.902,23.164-31.181,27.542-48.857l0.149-0.604c2.124-8.568,0.979-16.926-3.228-23.533
		c-4.203-6.604-11.203-11.034-20.243-12.812c-3.531-0.694-7.181-1.046-10.846-1.046c-8.853,0-18.119,1.94-30.046,6.292
		c-1.245,0.454-2.487,0.911-3.729,1.368c-13.886,5.108-28.245,10.392-43.344,10.393c-3.657,0-7.293-0.313-10.808-0.93
		c-10.074-1.766-17.286-5.84-21.434-12.11c-5.335-8.063-3.956-17.351-3.116-20.969c3.153-13.579,25.774-21.966,34.881-22.029
		l3.915-0.026l-1.196,3.728c-0.123,0.381-0.102,0.553,1.194,2.705l0.226,0.376c0.246,0.408,0.472,0.812,0.695,1.211
		c1.817,3.247,3.386,6.052,22.356,6.052c10.865,0,12.541-4.479,14.315-9.222c0.174-0.465,0.345-0.92,0.519-1.361l1.358-3.429
		l2.964,2.194c0.549,0.406,3.128,1.734,5.2,2.803c4.484,2.31,7.778,4.039,9.324,5.26c3.063,2.416,6.513,5.137,9.285,7.174
		l4.541,3.337l-5.386,1.656c-3.045,0.938-6.02,2.371-8.452,3.815c5.652-1.128,12.902-2,20.924-2c3.854,0,7.627,0.21,11.214,0.625
		c24.942,2.882,36.265,21.747,36.23,38.055c-0.027,12.781-3.381,28.823-8.544,40.867l-0.125,0.291
		C956.261,940.648,944.208,968.783,911.065,968.783z M866.252,964.438c-15.498,0-23.898-4.6-34.571-18.927l-2.193-2.944l3.403-1.377
		c4.039-1.634,7.86-2.429,11.681-2.429c10.676,0,20.569,6.148,33.082,20.56l3.681,4.238l-5.596,0.445
		C872.034,964.3,869.019,964.438,866.252,964.438z"/>
	<path fill="#DEC4A1" d="M866.252,961.603c-14.501,0-22.16-4.176-32.298-17.785c3.693-1.494,7.174-2.222,10.618-2.222
		c9.735,0,19.037,5.872,30.942,19.583C871.886,961.468,868.916,961.603,866.252,961.603z M842.904,932.138
		c-2.496,0-5.109,0.218-7.768,0.647c-3.129,0.505-5.656,0.945-7.737,1.308c-4.171,0.727-6.469,1.127-8.245,1.127
		c-1.332,0-2.362-0.221-3.801-0.814c-1.454-0.6-2.366-2.2-2.382-4.178c-0.016-1.951,0.909-4.637,3.565-5.784
		c4.739-2.046,12.795-3.263,17.123-3.916c0.938-0.143,1.675-0.253,2.169-0.342c2.338,2.072,6.758,3.445,11.174,3.445
		c1.379,0,2.743-0.129,4.052-0.384c4.171-0.811,7.699-1.621,9.721-2.232c4.549,0.375,19.59,3.38,31.328,25.94
		c3.344,6.427,13.475,9.354,21.473,9.354c5.083,0,9.521-1.134,12.497-3.193c19.518-13.512,24.176-32.318,28.681-50.507l0.149-0.604
		c2.312-9.329,1.038-18.469-3.588-25.737c-4.63-7.273-12.268-12.14-22.087-14.071c-3.711-0.729-7.544-1.1-11.393-1.1
		c-9.198,0-18.764,1.993-31.018,6.464c-1.247,0.455-2.492,0.913-3.737,1.371c-13.654,5.023-27.774,10.217-42.365,10.218
		c-3.491,0-6.962-0.298-10.318-0.887c-9.277-1.626-15.858-5.288-19.56-10.883c-4.728-7.145-3.477-15.501-2.719-18.763
		c2.741-11.802,23.481-19.776,32.139-19.836c-0.573,1.786,0.158,2.856,1.689,5.406c2.754,4.588,2.969,8.639,25.481,8.639
		c13.983,0,15.429-7.219,17.47-12.374c1.716,1.271,11.922,6.01,14.455,8.009c3.093,2.439,6.545,5.163,9.363,7.233
		c-7.602,2.339-16.396,8.172-16.054,10.853l0.112,0.876l0.831-0.299c7.14-2.566,23.274-5.317,39.306-3.465
		c23.694,2.738,33.751,20.691,33.72,35.233c-0.023,11.105-2.805,26.903-8.314,39.756c-4.268,9.955-15.675,37.3-47.252,37.3
		c-13.098,0-28.908-8.012-38.448-19.484C864.712,936.958,854.716,932.138,842.904,932.138z"/>
	<path d="M863.466,838.729c-13.991,0-18.976-5.538-18.976-10.721c0-8.788,14.064-8.788,18.686-8.788
		c12.15,0,15.361,6.084,15.361,9.301C878.537,838.236,865.982,838.729,863.466,838.729z"/>
	<path d="M875.702,828.521c0,2.317-1.445,7.373-12.236,7.373c-11.72,0-16.141-4.093-16.141-7.886c0-2.06,1.071-5.953,15.851-5.953
		C873.607,822.055,875.702,826.859,875.702,828.521z"/>
	<path fill="#FFFFFF" d="M821.757,902.327c0.307-3.394,1.42-6.738,2.6-10.28c0.439-1.32,0.893-2.681,1.313-4.074
		c4.418,0.661,8.154,1.112,12.447,1.285c-0.477,1.658-0.915,3.376-1.342,5.045c-1.086,4.252-2.21,8.647-3.996,12.285
		c-0.634,1.291-3.831,2.657-6.22,2.657c-0.46,0-0.85-0.053-1.157-0.155C823.704,908.521,821.558,904.54,821.757,902.327z"/>
	<path fill="#FFFFFF" d="M842.558,906.319c0.91-4.151,2.207-8.254,3.579-12.597c0.509-1.611,1.03-3.26,1.548-4.964
		c3.648-0.223,9.244-0.839,14.955-1.954c-0.882,2.408-1.73,4.835-2.555,7.193c-1.67,4.779-3.247,9.293-5.038,13.52
		c-0.717,1.694-2.541,3.481-4.241,4.157c-0.518,0.205-1.24,0.314-2.089,0.314c-1.716,0-3.594-0.447-4.463-1.063
		C843.028,910.058,842.22,907.862,842.558,906.319z"/>
	<path fill="#AA494A" d="M913.657,950.507c-8.462,0-15.952-3.927-20.034-10.505c-8.751-14.1-17.034-20.166-29.544-21.639
		l-6.905-0.813l12.734-38.457l3.223-0.652c4.563-0.924,8.361-2.53,12.758-4.391c8.083-3.42,17.241-7.295,33.136-7.446l0.494-0.003
		c11.28,0,20.09,3.484,25.513,10.076c5.646,6.862,7.308,16.462,4.938,28.53c-2.808,14.297-8.641,26.457-17.834,37.177
		C927.708,947.547,920.972,950.507,913.657,950.507z"/>
	<path fill="#AA494A" d="M864.741,912.732l9.515-28.735c5.123-1.037,9.363-2.831,13.846-4.728
		c7.967-3.371,16.205-6.856,30.978-6.997l0.475-0.003c9.493,0,16.79,2.77,21.1,8.009c4.518,5.491,5.78,13.511,3.753,23.837
		c-2.613,13.311-8.035,24.621-16.574,34.578c-3.349,3.904-8.516,6.145-14.176,6.145c-6.487,0-12.176-2.925-15.217-7.825
		C888.814,921.504,879,914.411,864.741,912.732z"/>
	<polygon fill-rule="evenodd" clip-rule="evenodd" fill="#C3D2DE" points="749.433,1316.229 765.915,1322.759 782.602,1283.275 
		758.622,1275.566 	"/>
	<path fill="#DEC4A1" d="M1137.018,1199.53c6.995,3.138,18.589-0.668,22.632-6.97c4.526-7.056,4.995-19.225-5.383-25.746
		c-8.73-5.486-11.917-6.32-20.892-10.752c-2.396-1.184-4.521-2.068-6.902-3.309l-8.335,35.194
		C1118.138,1187.948,1133.266,1197.847,1137.018,1199.53z"/>
	<path fill-rule="evenodd" clip-rule="evenodd" fill="#DEC4A1" d="M1011.672,1270.342l0.896,1.952
		c5.343,11.634,7.877,19.258,10.112,25.984c1.496,4.501,2.788,8.389,4.695,12.845c1.536,3.593,5.135,12.004,9.838,14.348
		c4.066,2.025,8.571,3.096,13.027,3.096c6.037,0,11.594-1.942,16.071-5.616c8.896-7.301,12.36-16.635,10.593-28.537
		c-0.71-4.78-1.98-9.639-3.209-14.337l-0.686-2.635c-1.234-4.789-2.549-9.474-3.94-14.435c-0.596-2.125-1.197-4.267-1.797-6.437
		l-0.608-2.203c0,0-18.167,4.805-27.07,7.686S1011.672,1270.342,1011.672,1270.342z"/>
	<path fill-rule="evenodd" clip-rule="evenodd" fill="#DEC4A1" d="M762.43,1233.867l-0.624,1.94
		c-1.256,3.907-2.492,8.139-3.687,12.231c-2.212,7.574-4.311,14.763-6.34,19.217c0.918,2.607,2.104,4.919,5.271,7.539
		c0,0,2.035,1.012,4.804,2.324c4.562,2.164,4.33,2.752,13.846,5.767s22.6,2.378,24.742,2.06c1.87-2.354,7.543-9.89,13.542-21.717
		l1.11-2.189c0,0-18.468-7.47-27.458-12.829S762.43,1233.867,762.43,1233.867z"/>
	<path fill-rule="evenodd" clip-rule="evenodd" fill="#DEC4A1" d="M689.36,882.956l-3.3-1.624
		c-16.675-8.197-32.425-15.94-45.783-29.034c-8.335-8.171-13.624-16.036-12.316-27.74l7.188-13.649
		c4.244-5.785,8.79-8.48,14.291-8.48c7.075,0,15.036,4.517,22.583,9.143c2.703,1.656,5.19,3.158,7.612,4.621
		c3.761,2.271,7.313,4.416,11.283,6.903l3.66,2.293L689.36,882.956z"/>
	<g>
		<path fill="#CC526B" d="M889.842,930.397c0,0,4.972,18.042,23.972,19.375c18.999,1.333,33.145-34.388,32.55-34.109
			c-0.57,0.24-4.576-2.525-4.955-2.596c-0.703-0.229-1.352-0.56-2.037-0.821l-4.04-1.685c-1.35-0.546-2.666-1.153-4.015-1.681
			c-1.324-0.584-2.672-1.099-4.001-1.656c-2.671-1.079-5.387-2.01-8.134-2.73c-1.379-0.326-2.761-0.634-4.143-0.856
			c-0.687-0.128-1.381-0.268-2.054-0.408c-0.659-0.126-1.261-0.282-2.063-0.372c-1.397-0.228-2.682-0.223-4.047-0.211
			c-1.349,0.019-2.707,0.172-4.065,0.364c-2.715,0.425-5.424,1.18-8.069,2.203c-2.644,1.023-5.225,2.309-7.705,3.79
			c-1.239,0.741-2.453,1.535-3.632,2.373c-1.165,0.825-2.358,1.746-3.352,2.611l-0.028,0.024l-5.39,4.346l2.834,2.835
			L889.842,930.397z"/>
	</g>
	<path fill="#DEC4A1" d="M1182.042,955.441c-10.77-5.23-35.713-5.045-53.993-14.021c-8.29-4.07-14.173-17.213-14.173-17.213
		s-0.212,0.124-0.61,0.357c-0.192,0.116-3.186,1.324-6.474,4.318c-3.732,3.399-7.846,8.69-8.676,9.899
		c-5.644,8.229-4.355,15.614-2.816,22.076s6.021,16.229,15.385,21.538c19.847,11.253,43.422,15.249,59.385,16.308
		c15.196,1.008,24.468-6.461,27.853-17.23S1192.811,960.672,1182.042,955.441z"/>
</g>
<g id="body">
	<path fill-rule="evenodd" clip-rule="evenodd" d="M1031.213,878.372C1031.494,878.496,1031.66,878.568,1031.213,878.372
		C1031.711,878.327,1031.485,878.348,1031.213,878.372z"/>
	<polygon fill-rule="evenodd" clip-rule="evenodd" points="976.073,558.633 975.926,558.844 976.165,558.872 	"/>
	<path d="M1127.678,1148.848c-0.588,4.886-2.017,5.996-4.144,10.267c2.381,1.24,4.608,1.329,7.005,2.513
		c8.975,4.432,12.742,4.435,20.892,10.752c7.225,5.602,7.782,11.601,3.256,18.656c-4.043,6.302-10.674,6.562-17.669,3.425
		c-3.752-1.684-4.495-5.29-16.922-10.914c-1.726,4.102-2.659,7.184-5.509,10.547c12.622,5.328,4.408,4.104,14.926,8.062
		c14.461,5.441,33.725,7.776,37.771-16.323C1169.364,1173.443,1159.606,1158.374,1127.678,1148.848z"/>
	<path d="M1132.55,938.229c14.468-65.207,32.479-101.099,42.452-128.891c9.705-27.048,12.984-43.334,14.589-50.2
		c3.062-13.09-1.431-20.444-6.472-31.881c-7.076-16.051-27.745-62.739-78.411-104.918c-0.23-0.037-0.462-0.075-0.692-0.112
		c0.011-0.103,0.022-0.206,0.033-0.309l0.165,0.011c-19.177-15.899-42.113-31.143-69.33-43.84
		c-15.305-7.14-31.556-12.238-47.958-16.263c-17.823-4.373-36.75-7.438-55.102-8.312c-38.836-1.85-84.01,1.107-120.356,16.039
		c-8.902,3.657-18.695,6.143-26.592,11.857c-7.502,5.427-34.395,29.811-39.949,40.96s-0.022-0.015-0.033-0.022
		c-2.966,5.009-16.217,35.772-16.038,35.859c-4.422,13.284-16.583,46.834-26.688,105.929s-11.932,66.996-14.302,100.936
		c-2.191,31.37-4.521,62.831-5.854,94.258c-0.405,201.378,43.922,250.378,69.834,271.335
		c45.569,36.854,98.094,47.044,157.903,52.319c25.043,2.209,50.099-0.886,74.988-4.236c8.334-1.121,16.621-2.596,25.256-3.96
		c8.808,19.178,9.903,27.371,14.777,38.762c2.524,5.901,6.053,13.215,11.181,15.77c9.964,4.963,22.737,4.866,32.16-2.866
		c9.71-7.969,13.512-18.268,11.599-31.145c-0.864-5.823-2.479-11.546-3.953-17.264c-1.781-6.909-3.772-13.764-5.75-20.918
		c73.98-38.797,72.1-107.419,64.09-140.482c-10.341-42.687-13.576-81.017-12.018-121.659c25.688,9.521,41.188,12.13,52.737,11.195
		c17.652-1.429,27.646-15.461,28.405-28.788C1205.223,942.215,1154.062,952.408,1132.55,938.229z M1055.493,1321.299
		c-7.305,1.641-15.711-2.312-18.481-9.461c-1.876-4.841-7.883-27.605-14.433-40.942c5.612-0.976,26.646-4.916,33.965-9.014
		c1.317,4.332,2.885,8.6,3.897,12.995c2.322,10.079,4.992,20.138,6.348,30.359
		C1067.99,1314.299,1063.671,1319.462,1055.493,1321.299z M1122.53,1136.817c2.748,34.995-9.612,65.248-33.798,90.613
		c-10.735,11.259-23.925,18.898-37.786,25.716c-15.583,7.664-32.28,8.767-35.086,10.21
		c-126.927,25.103-202.681-1.658-248.523-35.696c-33.527-24.895-80.333-95.456-72.791-269.619
		c3.935-90.861,5.087-116.904,11.385-154.142c11.675-69.024,20.341-110.858,43.519-161.437c5.105-16.161,16.66-27.363,29.064-37.818
		c20.929-17.641,46.247-27.5,72.924-32.468c29.004-5.401,60.839-8.955,90.138-4.531c52.687,7.954,97.764,21.128,139.566,54.272
		c35.113,27.841,68.464,57.917,93.847,120.29c1.709,4.199,0.579,12.116-0.041,17.45c-5.342,28.84-43.487,115.376-53.236,173.35
		c-4.861-1.913-2.313-9.373-7.627-11.464c-7.949,4.932-18.072,12.081-21.688,20.973c-3.229,7.94-2.998,15.375-1.187,23.684
		c1.481,6.795,7.396,17.401,19.962,24.483C1104.273,1070.374,1120.927,1116.409,1122.53,1136.817z M1186.993,981.42
		c-2.948,6.726-7.966,10.761-15.336,11.053c-20.692,0.822-41.679-3.615-59.303-13.239c-7.272-3.972-13.28-9.964-14.321-19.636
		c-0.566-5.265-0.118-12.604,2.72-17.246c2.724-4.457,6.154-8.331,10.271-11.546c0.451,5.578,2.913,9.397,7.2,12.734
		c14.309,11.135,28.784,14.202,48.301,17.747c5.645,1.025,11.572,2.958,16.25,6.129
		C1187.073,970.33,1189.58,975.518,1186.993,981.42z"/>
	<path d="M934.482,843.646c-4.799-0.334-9.312,0.523-13.905-1.788c-4.798-2.415-14.597-13.699-35.112-19.029
		c-6.625-7.815-15.928-9.017-24.454-9.554c-9.249-0.583-16.501,1.545-19.242,4.483c-0.818,0.257-34.386,3.949-44.62,25.223
		c-4.05,8.419-4.225,17.517-1.057,25.354c3.228,7.987,9.965,14.422,19.013,18.177c-3.823,11.917-4.895,21.249-3.188,27.763
		c-3.285,1.228-6.191,4.312-7.867,8.391c-2.279,5.548-1.931,11.714,0.956,16.918c2.695,4.857,7.475,7.321,14.208,7.321
		c2.15,0,4.131-0.243,5.578-0.42l0.476-0.058c2.088,1.752,4.555,5.071,7.161,8.578c3.932,5.292,8.389,11.29,12.862,13.614
		c5.681,2.951,11.459,4.387,17.665,4.387c7.833,0,15.428-2.349,21.825-4.646c0.019-0.007,0.076-0.022,0.193-0.022
		c0.826,0,2.552,0.705,4.737,1.6c5.203,2.128,13.066,5.344,22.844,5.344c0,0,0,0,0,0c34.183,0,49.459-30.608,55.078-43.887
		c5.861-13.851,8.654-26.566,8.654-44.738C976.287,872.403,961.796,845.547,934.482,843.646z M861.759,823.365
		c5.779,0,12.453,2.145,12.453,5.855c0,3.123-3.206,6.565-10.746,6.565c-11.72,0-16.141-3.384-16.141-7.177
		C847.325,826.55,850.847,823.365,861.759,823.365z M866.252,961.495c-14.501,0-22.16-4.176-32.298-17.785
		c3.693-1.494,7.174-2.222,10.618-2.222c9.735,0,19.037,5.872,30.942,19.583C871.886,961.36,868.916,961.495,866.252,961.495z
		 M958.318,928.541c-4.268,9.955-15.675,37.3-47.252,37.3c-13.098,0-28.908-8.012-38.448-19.484
		c-7.905-9.506-17.901-14.326-29.713-14.326c-2.496,0-5.109,0.218-7.768,0.647c-3.129,0.505-5.656,0.945-7.737,1.308
		c-4.171,0.727-6.469,1.127-8.245,1.127c-1.332,0-2.362-0.221-3.801-0.814c-1.454-0.6-2.366-2.2-2.382-4.178
		c-0.016-1.951,0.909-4.637,3.565-5.784c4.739-2.046,12.795-3.263,17.123-3.916c0.938-0.143,1.675-0.253,2.169-0.342
		c2.338,2.072,6.758,3.445,11.174,3.445c1.379,0,2.743-0.129,4.052-0.384c4.171-0.811,7.699-1.621,9.721-2.232
		c4.549,0.375,19.59,3.38,31.328,25.94c3.344,6.427,13.475,9.354,21.473,9.354c5.083,0,9.521-1.134,12.497-3.193
		c19.518-13.512,24.176-32.318,28.681-50.507l0.149-0.604c2.312-9.329,1.038-18.469-3.588-25.737
		c-4.63-7.273-12.268-12.14-22.087-14.071c-3.711-0.729-7.544-1.1-11.393-1.1c-9.198,0-18.764,1.993-31.018,6.464
		c-1.247,0.455-2.492,0.913-3.737,1.371c-13.654,5.023-27.774,10.217-42.365,10.218c-3.491,0-6.962-0.298-10.318-0.887
		c-9.277-1.626-15.858-5.288-19.56-10.883c-4.728-7.145-3.477-15.501-2.719-18.763c2.741-11.802,21.356-19.067,30.014-19.127
		c-0.573,1.786,1.948,15.433,23.334,15.463c19.508,0.027,22.807-6.51,24.849-11.665c9.697,3.314,19.583,10.336,22.4,12.406
		c-7.602,2.339-16.396,8.172-16.054,10.853l0.112,0.876l0.831-0.299c7.14-2.566,23.274-5.317,39.306-3.465
		c23.694,2.738,33.751,20.691,33.72,35.233C966.609,899.891,963.828,915.688,958.318,928.541z M821.757,903.638
		c0.307-3.394,1.42-6.738,2.6-10.28c0.439-1.32,0.893-2.681,1.313-4.074c4.418,0.661,8.154,1.112,12.447,1.285
		c-0.477,1.658-0.915,3.376-1.342,5.045c-1.086,4.252-2.21,8.647-3.996,12.285c-0.634,1.291-3.831,2.657-6.22,2.657
		c-0.46,0-0.85-0.053-1.157-0.155C823.704,909.832,821.558,905.851,821.757,903.638z M842.558,907.63
		c0.91-4.151,2.207-8.254,3.579-12.597c0.509-1.611,1.03-3.26,1.548-4.964c3.648-0.223,9.244-0.839,14.955-1.954
		c-0.882,2.408-1.73,4.835-2.555,7.193c-1.67,4.779-3.247,9.293-5.038,13.52c-0.717,1.694-2.541,3.481-4.241,4.157
		c-0.518,0.205-1.24,0.314-2.089,0.314c-1.716,0-3.594-0.447-4.463-1.063C843.028,911.368,842.22,909.173,842.558,907.63z
		 M944.407,904.008c-0.41,2.09-0.898,4.125-1.448,6.119c-1.171-0.785-2.361-1.537-3.59-2.223c-1.387-0.797-2.84-1.469-4.288-2.156
		c-1.476-0.625-2.958-1.246-4.484-1.759c-3.043-1.052-6.161-1.936-9.344-2.639c-1.593-0.352-3.194-0.687-4.828-0.918
		c-0.816-0.126-1.638-0.161-2.477-0.215c-0.858-0.021-1.771-0.045-2.492-0.03l-2.537,0.02c-0.854,0.031-1.709,0.075-2.555,0.162
		c-1.697,0.151-3.361,0.457-5,0.815c-3.27,0.756-6.395,1.886-9.349,3.279c-2.955,1.396-5.742,3.05-8.376,4.89
		c-1.316,0.922-2.592,1.894-3.83,2.914c-1.25,1.034-2.413,2.058-3.634,3.287l-0.007,0.007c-3.504-1.482-7.273-2.447-11.427-2.937
		l9.515-28.735c5.123-1.037,9.363-2.831,13.846-4.728c7.967-3.371,16.205-6.856,30.978-6.997l0.475-0.003
		c9.493,0,16.79,2.77,21.1,8.009C945.171,885.662,946.434,893.682,944.407,904.008z M940.261,918.182
		c-2.976,7.435-7.094,14.184-12.429,20.404c-3.349,3.904-8.516,6.145-14.176,6.145c-6.487,0-12.176-2.925-15.217-7.825
		c-5.342-8.607-10.745-14.613-16.931-18.55c0.617-0.483,1.259-0.963,1.896-1.414c1.179-0.838,2.393-1.632,3.632-2.373
		c2.48-1.481,5.061-2.767,7.705-3.79c2.645-1.023,5.354-1.778,8.069-2.203c1.358-0.192,2.716-0.346,4.065-0.364
		c1.366-0.012,2.65-0.017,4.047,0.211c0.802,0.09,1.405,0.246,2.063,0.372c0.673,0.141,1.367,0.28,2.054,0.408
		c1.382,0.223,2.764,0.53,4.143,0.856c2.747,0.721,5.463,1.651,8.134,2.73c1.329,0.558,2.677,1.072,4.001,1.656
		c1.349,0.527,2.666,1.135,4.015,1.681l4.04,1.685C939.673,917.926,939.967,918.055,940.261,918.182z"/>
</g>
<g id="hat">
	<path fill-rule="evenodd" clip-rule="evenodd" d="M1108.984,477.235c-5.327,12.364-22.606,21.89-37.146,20.552
		c-10.608-0.976-14.831-3.299-15.18-14.494c-0.029-0.93-1.12-1.826-1.662-2.653c-9.98,5.098-18.888,14.492-30.703,6.354
		c-2.099-5.248-3.96-9.898-5.876-14.69c-1.892-0.134-3.775-0.268-5.807-0.411c-1.041,0.898-2.111,1.821-3.141,2.709
		c-3.294-0.34-6.459-0.667-9.453-0.977c-5.895-5.619-11.697-11.151-18.39-17.531c0.847-6.356,1.598-13.684,2.849-20.923
		c1.311-7.584,3.349-22.321-2.376-28.598c-6.659-7.299-14.286-8.483-20.106-16.577c-2.487-3.458-6.411-5.4-8.141-9.133
		c-4.569-9.86-7.332-20.647-12.58-30.083c-8.375-15.062-5.127-29.773-1.67-44.993c3.996-17.59,11.423-33.792,21.412-48.423
		c3.917-5.737,12.109-9.195,19.023-12.1c10.716-4.501,21.814-8.459,33.115-11.072c8.021-1.855,16.678-1.782,24.991-1.373
		c11.976,0.59,23.947,1.912,35.823,3.604c7.708,1.098,15.355,3.028,22.83,5.256c16.837,5.018,34.109,9.16,50.144,16.108
		c13.888,6.02,26.366,15.328,39.373,23.336c17.772,10.943,32.052,25.746,44.937,41.901c3.214,4.028,5.562,9.012,7.278,13.916
		c3.804,10.87,6.972,21.962,10.349,32.979c0.417,1.36,0.075,3.155,0.846,4.171c4.855,6.401,2.662,12.713-0.128,18.901
		c-5.204,11.541-9.694,23.549-16.209,34.317c-8.446,13.962-20.674,24.308-35.821,31.194c-9.64,4.383-19.355,8.392-29.982,7.963
		c-10.247-0.413-20.441-2.133-30.631-2.382c-3.328,1.01-6.655,2.02-9.716,2.948c-6.142-3.963-8.663-3.484-12.095,2.549
		c-1.62,2.848-4.197,5.151-6.336,7.703C1108.867,477.27,1108.925,477.253,1108.984,477.235z M1181.528,447.934
		c17.867-5.922,19.479-9.661,22.183-12.265c6.185-5.956,12.698-11.961,17.254-19.108c4.655-7.306,11.477-14.049,11.111-23.832
		c-0.183-4.895-0.852-9.798-0.674-14.675c0.553-15.238-0.702-29.784-12.412-41.364c-4.907-4.854-9.35-10.174-14.177-15.111
		c-2.188-2.239-4.867-3.99-7.209-6.091c-5.132-4.604-9.797-9.844-15.375-13.809c-7.868-5.592-16.198-10.613-24.679-15.243
		c-11.267-6.149-22.479-12.724-34.429-17.207c-12.995-4.876-26.662-8.307-40.306-11.015c-16.33-3.241-32.875-5.934-49.455-7.241
		c-18.378-1.449-36.146,2.704-53.423,9.331c-9.442,3.622-16.133,9.045-18.795,19.036c-1.395,5.232-3.056,10.406-4.853,15.518
		c-5.904,16.798-5.232,33.577,0.214,50.264c2.116,6.484,4.907,12.749,8.079,20.878c14.084,10.644,29.612,22.378,45.392,34.303
		c-0.553,0.833-2.123,2.339-2.66,4.151c-3.555,11.992-7.519,23.926-9.925,36.159c-0.757,3.847,1.736,9.94,4.821,12.439
		c2.582,2.092,8.43,1.288,12.392,0.187c3.223-0.896,5.795-4.136,10.216-7.535c2.255-0.881,6.421-2.509,11.565-4.52
		c1.083,10.244-7.182,20.116,2.454,27.892c2.359,0.14,4.545,0.27,7.028,0.417c2.847-4.96,5.638-9.82,8.912-15.524
		c1.92-1.009,4.909-2.578,7.644-4.015c2.135,1.661,3.954,3.077,5.267,4.098c1.288,7.288,2.482,14.047,3.797,21.482
		c1.172,0.648,3.053,1.514,4.746,2.658c7.213,4.876,9.979,4.61,16.018-1.656c1.203-1.25,2.73-2.244,3.722-3.633
		c4.454-6.237,11.44-11.166,10.708-19.938c1.444-2.293,4.19-6.649,4.19-6.649S1151.417,457.914,1181.528,447.934z"/>
	<path fill-rule="evenodd" clip-rule="evenodd" d="M969.877,305.381c1.451-1.264,2.519-2.192,3.723-3.24
		c-0.81-9.846,5.949-14.448,13.102-19.026c13.737-8.791,28.126-12.366,43.932-6.37c5.408,2.052,10.747,4.289,16.223,6.482
		c2.159,2.517,4.411,5.14,6.935,8.078c-1.429,1.768-3.097,3.83-5.01,6.197c0.354,0.453,0.91,1.419,1.695,2.135
		c14.612,13.335,12.207,29.829,4.508,42.866c-4.063,6.88-9.362,12.301-16.895,15.184c-2.167,0.829-4.591,1.27-6.915,1.354
		c-8.749,0.313-17.51,0.31-26.256,0.681c-1.415,0.061-2.775,1.421-5.271,2.789c-8.594-6.692-16.765-14.485-24.108-23.57
		C967.09,328.487,969.895,316.977,969.877,305.381z"/>
	<path fill-rule="evenodd" clip-rule="evenodd" d="M1170.28,335.157c5.136,3.132,15.646,5.837,20.376,11.159
		c7.058,7.943,13.959,16.101,17.427,27.157c3.41,10.872-0.437,17.944-5.733,26.261c-4.899,7.694-11.266,13.2-18.989,17.286
		c-8.08,4.275-21.889,4.853-33.652,3.179c-8.943-5.017-22.719-13.918-22.719-13.918s-9.56-18.547-10.823-27.688
		c-2.061-14.904,6.172-26.384,18.18-36.062c9.815-7.912,18.562-5.729,29.962-4.494
		C1166.166,338.239,1166.858,335.157,1170.28,335.157z"/>
	<path fill-rule="evenodd" clip-rule="evenodd" d="M1096.312,381.325c-3.714,2.585-8.019,5.579-14.178,9.864
		c-0.881-6.249-1.436-10.179-1.803-12.781c3.349-3.607,5.481-11.574,7.674-13.937c1.843,0.416,3.512,0.792,5.521,1.246
		C1094.312,368.518,1095.104,377.013,1096.312,381.325z"/>
	<path fill-rule="evenodd" clip-rule="evenodd" d="M1059.85,376.248c0.519-4.516,0.855-7.454,1.196-10.422
		c1.878-1.704,7.952-6.556,7.952-6.556s8.028-0.734,10.342-0.599c0.15,2.023-1.678,9.649-1.418,13.133
		C1071.962,373.381,1067.153,374.317,1059.85,376.248z"/>
	<path d="M1302.696,499.043c34.883-27.884,137.343-12.814,129.978-88.77c-6.94-71.571-49.645-159.27-99.323-220.127
		c-103.127-126.365-290.531-122.378-430.38-76.503c-30.595,10.036-88.22,52.902-94.265,72.104
		c-14.743,46.833,32.563,90.534,39.466,130.356c6.938,40.024-2.52,62.924-25.209,65.573s-42.428-43.955-78.978-42.752
		c-51.475,1.689-123.963,133.819-118.877,163.549s19.36,50.731,36.682,70.73s48.754,50.244,80.43,66.246
		c3.246-6.667,11.138-13.149,5.404-16.204c-16.534-8.809-43.396-24.205-56.032-38.66s-49.747-42.249-51.548-87.215
		c-1.349-33.668,37.531-87.771,67.592-119.698c56.05-59.53,77.17,17.339,114.276,18.462c15.879,0.48,34.577-14.341,40.617-54.057
		c9.179-60.363-55.87-105.377-39.033-150.611c10.102-27.141,78.553-65.709,129.365-75.947
		c104.77-21.112,191.768-20.945,276.715,20.272c72.031,34.951,127.219,112.971,147.352,153.622
		c50.405,101.775,42.68,143.707,28.041,156.534c-24.379,21.362-87.292,18.477-119.036,49.589
		c-25.775,25.263-32.475,67.581,7.38,83.865c31.167,12.734,78.893-35.271,89.716,32.293c5.062,31.588,18.257,65.914,11.307,95.16
		c-13.728,57.766-177.563,72.501-215.9,75.296c-5.749,0.419-0.362,10.576-1.539,16.285c53.382-1.739,252.031-17.396,234.739-113.385
		c-4.424-24.559-10.855-130.293-53.182-129.847c-17.315,0.176-58.459,22.69-71.241,3.558
		C1274.087,539.12,1284.434,513.638,1302.696,499.043C1309.082,493.938,1292.536,507.163,1302.696,499.043z M861.94,322.437
		C862.345,323.027,861.852,322.735,861.94,322.437C861.94,322.437,861.912,322.531,861.94,322.437z"/>
</g>
<g id="klappe">
	<path d="M1112.633,806.545c-2.041-0.839-3.247-3.002-3.926-3.824c7.386-36.329,9.109-70.493-19.459-98.646
		c-37.346-36.804-83.341-39.447-129.973-13.412c-13.325-10.562-22.053-19.703-36.193-30.377
		c-13.515-10.2-27.689-25.199-41.21-35.393c-10.001-7.539-13.125-11.501-22.698-19.593c-9.305-7.866-12.018-11.023-21.262-18.963
		c-1.437-1.233-3.325-1.942-4.761-3.176c-1.539-1.323-2.791-2.979-4.167-4.491c0.048-0.042,0.094-0.09,0.142-0.134
		c-1.6-1.222-2.899-2.793-4.639-3.835c-2.251-1.348-5.13-1.607-7.711-1.366c-2.594,0.242-6.143,1.014-7.4,3.64
		c-1.249,2.605-0.847,6.09,1.974,7.397c0.003-0.003,0.007-0.006,0.011-0.009c0.016,0.013,0.031,0.024,0.046,0.037
		c0.027,0.012,0.05,0.027,0.078,0.039c0.108,0.046,0.168,0.115,0.209,0.191c52.135,41.821,85.221,76.898,136.588,118.108
		c-33.771,39.997-39.302,73.118-15.966,122.003c22.518,22.479,22.481,22.457,32.284,27.646c9.771,5.172,21.017,12.449,27.285,13.034
		c13.142,1.226,25.976,2.5,39.677,1.492c12.815-0.942,20.707-9.265,31.12-13.097c7.131-2.624,13.382-7.309,19.309-12.063
		c5.575-4.473,9.465-10.991,14.585-16.121c1.779-1.783,3.724-4.655,5.304-4.254c13.456,3.416,24.367,8.573,35.733,10.703
		c5.109,0.957,10.17,3.586,15.778,4.794c-0.03,0.121-0.06,0.235-0.09,0.356c1.479,0.479,3.139,1.391,4.425,0.447
		c1.545-1.133,2.981-5.078,3.946-6.746c3.041-5.262-3.172-5.571-6.171-7.638C1140.133,817.356,1126.294,812.16,1112.633,806.545z"/>
</g>
<g id="auge">
	<path fill-rule="evenodd" clip-rule="evenodd" fill="#FFFFFF" d="M865.492,702.855c-0.144-1.081-0.543-2.014-0.839-2.707
		c-14.22-33.231-39.036-53.734-73.76-60.938c-9.536-1.979-18.38-2.114-26.285-0.402c-5.847,1.266-11.207,3.556-15.932,6.806
		c-23.878,16.427-37.474,36.046-41.562,59.982c-6.06,35.469,3.266,59.966,28.512,74.892c22.772,13.462,42.655,20.8,65.06,21.51
		c6.71,0.212,19.892-1.833,19.892-1.833c10.285-2.227,18.265-7.153,23.716-14.643C858.85,765.521,874.354,738.098,865.492,702.855z"
		/>
	<path fill-rule="evenodd" clip-rule="evenodd" fill="#FFFFFF" d="M864.539,699.637c0.299,0.907,0.062-0.053-0.325-0.946
		c-14.168-32.652-39.019-53.757-74.815-60.815c-14.166-2.794-28.661-1.304-40.606,6.751c-21.413,14.436-37.748,32.988-42.499,59.31
		c-5.354,29.659-1.193,55.988,27.363,72.359c21.106,12.099,41.71,20.749,66.971,21.392c15.506,0.393,32.86-3.026,41.883-15.081
		C860.402,758.7,873.248,732.502,864.539,699.637z"/>
	<path fill-rule="evenodd" clip-rule="evenodd" d="M698.813,738.498c-3.449-18.867,0.98-49.639,17.135-73.709
		c16.155-24.07,44.176-37.962,65.45-38.246c28.568-0.385,50.377,12.549,68.478,33.532c10.101,11.71,18.317,24.182,22.97,39.241
		c4.657,15.071,5.141,29.886,0.258,44.573c-3.581,10.775-7.819,21.553-13.413,31.392c-12.104,21.289-34.319,29.709-58.13,31.826
		c-21.379,1.901-40.106-5.195-59.175-13.871C717.735,782.021,703.926,765.322,698.813,738.498z M860.133,702.229
		c-17.969-42.606-37.987-54.717-71.292-61.626c-13.179-2.734-27.278,2.373-38.338,9.981c-19.825,13.637-36.294,31.521-40.572,56.564
		c-4.821,28.22,1.954,52.717,28.579,68.457c19.679,11.634,37.188,18.895,60.669,19.638
		C847.674,798.082,872.02,730.415,860.133,702.229z"/>
	<path fill-rule="evenodd" clip-rule="evenodd" d="M761.529,732.894c-8.286-0.063-14.57-7.513-14.752-17.486
		c-0.119-6.538,11.341-15.46,19.8-15.414c5.915,0.032,14.123,10.075,14.016,17.149C780.464,725.613,771.56,732.97,761.529,732.894z"
		/>
</g>
<g id="arm">
	<path fill-rule="evenodd" clip-rule="evenodd" d="M560.681,784.81c4.136-7.151,7.049-12.797,10.518-18.077
		c12.25-18.65,3.499-42.998-18.05-48.641c-3.168-0.83-7.62,0.756-10.704,2.552c-9.872,5.747-14.585,16.89-14.508,28.328
		c0.043,6.328,0.105,12.748-6.635,16.089c-2.184,1.082-5.491,2.165-7.231,1.248c-1.817-0.957-3.335-4.332-3.315-6.637
		c0.18-21.101,10.812-38.735,27.607-50.142c15.04-10.214,24.086-9.746,35.943-1.993c12.824,8.385,16.37,18.625,17.948,32.586
		c1.4,12.381-2.956,26.313-8.785,38.997c16.359,10.882,33.189,20.896,49.267,31.591c11.877-16.369,26.061-9.265,40.767-0.251
		c8.959,5.491,15.537,9.273,25.253,15.577c-1.007,3.117-0.098,6.881-1.663,11.723c-9.411-5.965-17.14-11.334-25.321-15.889
		c-5.715-3.182-11.843-6.283-18.162-7.543c-7.324-1.46-13.797,5.691-14.371,13.32c-0.324,4.315-0.852,10.492,7.074,18.338
		c10.158,10.057,36.72,23.643,48.296,30.224c-1.186,4.47,0.111,9.722-0.865,13.401c-20.135-10.14-39.374-18.221-55.453-33.982
		c-8.157-7.997-14.813-16.978-13.084-30.623C604.167,811.194,582.613,799.205,560.681,784.81z"/>
</g>
<g id="bein">
	<path fill-rule="evenodd" clip-rule="evenodd" d="M788.841,1289.918c-5.902,12.67-13.62,26.806-19.255,38.903
		c-3.189,0.806-7.119,1.29-11.911,0.199c-5.425-1.235-13.062-7.431-13.655-10.472c2.368-11.902,8.845-28.304,11.224-40.264
		c-4.226-3.496-5.488-6.742-6.518-9.91c4.383-8.606,6.659-30.417,12.208-41.447c2.377,2.202,6.892,6.887,8.891,8.739
		c-2.385,5.866-6.307,22.666-8.123,30.904c10.685,9.269,22.054,11.275,33.97,10.56c4.782-7.238,7.568-13.646,12.449-21.035
		c1.249-0.073,6.852,2.742,10.229,2.544c-9.083,21.267-16.4,30.249-16.4,30.249S791.237,1290.61,788.841,1289.918z
		 M777.533,1287.921c-5.236-1.453-9.763-2.534-12.983-4.663c-2.683,12.21-7.311,20.199-10.05,32.668
		c1.403,2.232,6.877,4.17,9.021,3.616C768.599,1308.301,772.76,1298.488,777.533,1287.921z"/>
</g>
</svg>
